<svg xmlns="http://www.w3.org/2000/svg" xmlns:xlink="http://www.w3.org/1999/xlink" contentStyleType="text/css" data-diagram-type="DESCRIPTION" height="2487.5px" preserveAspectRatio="none" style="width:2032px;height:2487px;background:#1A1A1A;" version="1.1" viewBox="0 0 2032 2487" width="2032.8125px" zoomAndPan="magnify"><defs/><g><rect fill="#1A1A1A" height="2487.5" style="stroke:none;stroke-width:1.5625;" width="2032.8125" x="0" y="0"/><!--cluster OC--><g class="cluster" data-entity="OC" data-source-line="18" data-uid="ent0003" id="cluster_OC"><polygon fill="#1B5E20" points="982.8125,273.4375,998.4375,257.8125,2006.25,257.8125,2006.25,1635.9375,1990.625,1651.5625,982.8125,1651.5625,982.8125,273.4375" style="stroke:#888888;stroke-width:1.5625;"/><line style="stroke:#888888;stroke-width:1.5625;" x1="1990.625" x2="2006.25" y1="273.4375" y2="257.8125"/><line style="stroke:#888888;stroke-width:1.5625;" x1="982.8125" x2="1990.625" y1="273.4375" y2="273.4375"/><line style="stroke:#888888;stroke-width:1.5625;" x1="1990.625" x2="1990.625" y1="273.4375" y2="1651.5625"/><text fill="#000000" font-family="Verdana" font-size="31.25" font-weight="bold" lengthAdjust="spacing" textLength="153.3051" x="1411.6287" y="309.5428">Obsidian</text></g><!--cluster Docs--><g class="cluster" data-entity="Docs" data-source-line="31" data-uid="ent0006" id="cluster_Docs"><path d="M1036.7188,1159.375 L1167.4164,1159.375 A5.8594,5.8594 0 0 1 1171.3226,1163.2813 L1182.2601,1206.7291 L1952.3438,1206.7291 A3.9063,3.9063 0 0 1 1956.25,1210.6354 L1956.25,1597.6563 A3.9063,3.9063 0 0 1 1952.3438,1601.5625 L1036.7188,1601.5625 A3.9063,3.9063 0 0 1 1032.8125,1597.6563 L1032.8125,1163.2813 A3.9063,3.9063 0 0 1 1036.7188,1159.375" fill="#388E3C" style="stroke:#000000;stroke-width:1.5625;"/><line style="stroke:#000000;stroke-width:1.5625;" x1="1032.8125" x2="1182.2601" y1="1206.7291" y2="1206.7291"/><text fill="#000000" font-family="Verdana" font-size="31.25" font-weight="bold" lengthAdjust="spacing" textLength="129.1351" x="1039.0625" y="1193.9178">Folders</text></g><!--cluster Doorstop--><g class="cluster" data-entity="Doorstop" data-source-line="54" data-uid="ent0010" id="cluster_Doorstop"><polygon fill="#4A148C" points="32.8125,190.625,48.4375,175,598.4375,175,598.4375,1516.4063,582.8125,1532.0313,32.8125,1532.0313,32.8125,190.625" style="stroke:#888888;stroke-width:1.5625;"/><line style="stroke:#888888;stroke-width:1.5625;" x1="582.8125" x2="598.4375" y1="190.625" y2="175"/><line style="stroke:#888888;stroke-width:1.5625;" x1="32.8125" x2="582.8125" y1="190.625" y2="190.625"/><line style="stroke:#888888;stroke-width:1.5625;" x1="582.8125" x2="582.8125" y1="190.625" y2="1532.0313"/><text fill="#000000" font-family="Verdana" font-size="31.25" font-weight="bold" lengthAdjust="spacing" textLength="160.4614" x="229.1443" y="226.7303">Doorstop</text></g><!--cluster Git--><g class="cluster" data-entity="Git" data-source-line="79" data-uid="ent0014" id="cluster_Git"><polygon fill="#D84315" points="564.0625,1743.75,579.6875,1728.125,870.3125,1728.125,870.3125,2300.7813,854.6875,2316.4063,564.0625,2316.4063,564.0625,1743.75" style="stroke:#888888;stroke-width:1.5625;"/><line style="stroke:#888888;stroke-width:1.5625;" x1="854.6875" x2="870.3125" y1="1743.75" y2="1728.125"/><line style="stroke:#888888;stroke-width:1.5625;" x1="564.0625" x2="854.6875" y1="1743.75" y2="1743.75"/><line style="stroke:#888888;stroke-width:1.5625;" x1="854.6875" x2="854.6875" y1="1743.75" y2="2316.4063"/><text fill="#000000" font-family="Verdana" font-size="31.25" font-weight="bold" lengthAdjust="spacing" textLength="50.2625" x="685.8063" y="1779.8553">Git</text></g><!--cluster Task--><g class="cluster" data-entity="Task" data-source-line="85" data-uid="ent0018" id="cluster_Task"><polygon fill="#F57F17" points="1106.25,1731.25,1121.875,1715.625,1860.9375,1715.625,1860.9375,1909.375,1845.3125,1925,1106.25,1925,1106.25,1731.25" style="stroke:#888888;stroke-width:1.5625;"/><line style="stroke:#888888;stroke-width:1.5625;" x1="1845.3125" x2="1860.9375" y1="1731.25" y2="1715.625"/><line style="stroke:#888888;stroke-width:1.5625;" x1="1106.25" x2="1845.3125" y1="1731.25" y2="1731.25"/><line style="stroke:#888888;stroke-width:1.5625;" x1="1845.3125" x2="1845.3125" y1="1731.25" y2="1925"/><text fill="#000000" font-family="Verdana" font-size="31.25" font-weight="bold" lengthAdjust="spacing" textLength="100.2197" x="1427.2339" y="1767.3553">Tasks</text></g><!--entity QC--><g class="entity" data-entity="QC" data-source-line="19" data-uid="ent0004" id="entity_QC"><polygon fill="#0D47A1" points="1008.5938,348.4375,1024.2188,332.8125,1293.9026,332.8125,1293.9026,402.0416,1278.2776,417.6666,1008.5938,417.6666,1008.5938,348.4375" style="stroke:#888888;stroke-width:1.5625;"/><line style="stroke:#888888;stroke-width:1.5625;" x1="1278.2776" x2="1293.9026" y1="348.4375" y2="332.8125"/><line style="stroke:#888888;stroke-width:1.5625;" x1="1008.5938" x2="1278.2776" y1="348.4375" y2="348.4375"/><line style="stroke:#888888;stroke-width:1.5625;" x1="1278.2776" x2="1278.2776" y1="348.4375" y2="417.6666"/><text fill="#000000" font-family="Verdana" font-size="31.25" lengthAdjust="spacing" textLength="87.7228" x="1032.0313" y="395.4803">Quick</text><text fill="#000000" font-family="Verdana" font-size="31.25" lengthAdjust="spacing" textLength="10.9863" x="1119.754" y="395.4803">&#160;</text><text fill="#000000" font-family="Verdana" font-size="31.25" lengthAdjust="spacing" textLength="124.0997" x="1130.7404" y="395.4803">Capture</text></g><!--entity Kanban--><g class="entity" data-entity="Kanban" data-source-line="21" data-uid="ent0005" id="entity_Kanban"><polygon fill="#2E7D32" points="1008.5938,687.5,1024.2188,671.875,1272.3114,671.875,1272.3114,1019.458,1256.6864,1035.083,1008.5938,1035.083,1008.5938,687.5" style="stroke:#888888;stroke-width:1.5625;"/><line style="stroke:#888888;stroke-width:1.5625;" x1="1256.6864" x2="1272.3114" y1="687.5" y2="671.875"/><line style="stroke:#888888;stroke-width:1.5625;" x1="1008.5938" x2="1256.6864" y1="687.5" y2="687.5"/><line style="stroke:#888888;stroke-width:1.5625;" x1="1256.6864" x2="1256.6864" y1="687.5" y2="1035.083"/><text fill="#000000" font-family="Verdana" font-size="31.25" font-weight="bold" lengthAdjust="spacing" textLength="132.2174" x="1032.0313" y="734.5428">Kanban</text><line style="stroke:#888888;stroke-width:1.5625;" x1="1008.5938" x2="1256.6864" y1="741.1041" y2="741.1041"/><line style="stroke:#888888;stroke-width:1.5625;" x1="1256.6864" x2="1272.3114" y1="741.1041" y2="725.4791"/><text fill="#000000" font-family="Verdana" font-size="31.25" lengthAdjust="spacing" textLength="143.4021" x="1032.0313" y="778.772">Research</text><text fill="#000000" font-family="Verdana" font-size="31.25" lengthAdjust="spacing" textLength="201.2177" x="1032.0313" y="816.7511">Requirement</text><text fill="#000000" font-family="Verdana" font-size="31.25" lengthAdjust="spacing" textLength="67.1692" x="1032.0313" y="854.7302">ADR</text><text fill="#000000" font-family="Verdana" font-size="31.25" lengthAdjust="spacing" textLength="151.3519" x="1032.0313" y="892.7094">Hardware</text><text fill="#000000" font-family="Verdana" font-size="31.25" lengthAdjust="spacing" textLength="139.9231" x="1032.0313" y="930.6885">Software</text><text fill="#000000" font-family="Verdana" font-size="31.25" lengthAdjust="spacing" textLength="82.5806" x="1032.0313" y="968.6676">Bring</text><text fill="#000000" font-family="Verdana" font-size="31.25" lengthAdjust="spacing" textLength="10.9863" x="1114.6118" y="968.6676">&#160;</text><text fill="#000000" font-family="Verdana" font-size="31.25" lengthAdjust="spacing" textLength="39.2456" x="1125.5981" y="968.6676">up</text><text fill="#000000" font-family="Verdana" font-size="31.25" lengthAdjust="spacing" textLength="60.6689" x="1032.0313" y="1006.6467">Bug</text></g><!--entity BOM--><g class="entity" data-entity="BOM" data-source-line="33" data-uid="ent0007" id="entity_BOM"><polygon fill="#4CAF50" points="1700,1330.4688,1715.625,1314.8438,1919.4977,1314.8438,1919.4977,1472.5311,1903.8727,1488.1561,1700,1488.1561,1700,1330.4688" style="stroke:#888888;stroke-width:1.5625;"/><line style="stroke:#888888;stroke-width:1.5625;" x1="1903.8727" x2="1919.4977" y1="1330.4688" y2="1314.8438"/><line style="stroke:#888888;stroke-width:1.5625;" x1="1700" x2="1903.8727" y1="1330.4688" y2="1330.4688"/><line style="stroke:#888888;stroke-width:1.5625;" x1="1903.8727" x2="1903.8727" y1="1330.4688" y2="1488.1561"/><text fill="#000000" font-family="Verdana" font-size="31.25" font-weight="bold" lengthAdjust="spacing" textLength="79.9866" x="1723.4375" y="1377.5116">BOM</text><line style="stroke:#888888;stroke-width:1.5625;" x1="1700" x2="1903.8727" y1="1384.0729" y2="1384.0729"/><line style="stroke:#888888;stroke-width:1.5625;" x1="1903.8727" x2="1919.4977" y1="1384.0729" y2="1368.4479"/><text fill="#000000" font-family="Verdana" font-size="31.25" lengthAdjust="spacing" textLength="21.9727" x="1723.4375" y="1421.7407">&#160;&#160;</text><text fill="#000000" font-family="Verdana" font-size="31.25" lengthAdjust="spacing" textLength="135.025" x="1745.4102" y="1421.7407">Bomlisty</text><text fill="#000000" font-family="Verdana" font-size="31.25" lengthAdjust="spacing" textLength="21.9727" x="1723.4375" y="1459.7198">&#160;&#160;</text><text fill="#000000" font-family="Verdana" font-size="31.25" lengthAdjust="spacing" textLength="116.4093" x="1745.4102" y="1459.7198">Zakupy</text></g><!--entity HW--><g class="entity" data-entity="HW" data-source-line="39" data-uid="ent0008" id="entity_HW"><polygon fill="#4CAF50" points="1100,1254.6875,1115.625,1239.0625,1336.8011,1239.0625,1336.8011,1548.6664,1321.1761,1564.2914,1100,1564.2914,1100,1254.6875" style="stroke:#888888;stroke-width:1.5625;"/><line style="stroke:#888888;stroke-width:1.5625;" x1="1321.1761" x2="1336.8011" y1="1254.6875" y2="1239.0625"/><line style="stroke:#888888;stroke-width:1.5625;" x1="1100" x2="1321.1761" y1="1254.6875" y2="1254.6875"/><line style="stroke:#888888;stroke-width:1.5625;" x1="1321.1761" x2="1321.1761" y1="1254.6875" y2="1564.2914"/><text fill="#000000" font-family="Verdana" font-size="31.25" font-weight="bold" lengthAdjust="spacing" textLength="61.4319" x="1123.4375" y="1301.7303">HW</text><line style="stroke:#888888;stroke-width:1.5625;" x1="1100" x2="1321.1761" y1="1308.2916" y2="1308.2916"/><line style="stroke:#888888;stroke-width:1.5625;" x1="1321.1761" x2="1336.8011" y1="1308.2916" y2="1292.6666"/><text fill="#000000" font-family="Verdana" font-size="31.25" lengthAdjust="spacing" textLength="21.9727" x="1123.4375" y="1345.9595">&#160;&#160;</text><text fill="#000000" font-family="Verdana" font-size="31.25" lengthAdjust="spacing" textLength="71.0297" x="1145.4102" y="1345.9595">MCU</text><text fill="#000000" font-family="Verdana" font-size="31.25" lengthAdjust="spacing" textLength="21.9727" x="1123.4375" y="1383.9386">&#160;&#160;</text><text fill="#000000" font-family="Verdana" font-size="31.25" lengthAdjust="spacing" textLength="126.8311" x="1145.4102" y="1383.9386">Sensory</text><text fill="#000000" font-family="Verdana" font-size="31.25" lengthAdjust="spacing" textLength="21.9727" x="1123.4375" y="1421.9177">&#160;&#160;</text><text fill="#000000" font-family="Verdana" font-size="31.25" lengthAdjust="spacing" textLength="139.3433" x="1145.4102" y="1421.9177">Zasilanie</text><text fill="#000000" font-family="Verdana" font-size="31.25" lengthAdjust="spacing" textLength="21.9727" x="1123.4375" y="1459.8969">&#160;&#160;</text><text fill="#000000" font-family="Verdana" font-size="31.25" lengthAdjust="spacing" textLength="152.3285" x="1145.4102" y="1459.8969">Interfejsy</text><text fill="#000000" font-family="Verdana" font-size="31.25" lengthAdjust="spacing" textLength="21.9727" x="1123.4375" y="1497.876">&#160;&#160;</text><text fill="#000000" font-family="Verdana" font-size="31.25" lengthAdjust="spacing" textLength="146.6217" x="1145.4102" y="1497.876">Obudowa</text><text fill="#000000" font-family="Verdana" font-size="31.25" lengthAdjust="spacing" textLength="21.9727" x="1123.4375" y="1535.8551">&#160;&#160;</text><text fill="#000000" font-family="Verdana" font-size="31.25" lengthAdjust="spacing" textLength="62.088" x="1145.4102" y="1535.8551">PCB</text></g><!--entity DBG--><g class="entity" data-entity="DBG" data-source-line="48" data-uid="ent0009" id="entity_DBG"><polygon fill="#4CAF50" points="1392.1875,1375,1407.8125,1359.375,1645.7275,1359.375,1645.7275,1428.6041,1630.1025,1444.2291,1392.1875,1444.2291,1392.1875,1375" style="stroke:#888888;stroke-width:1.5625;"/><line style="stroke:#888888;stroke-width:1.5625;" x1="1630.1025" x2="1645.7275" y1="1375" y2="1359.375"/><line style="stroke:#888888;stroke-width:1.5625;" x1="1392.1875" x2="1630.1025" y1="1375" y2="1375"/><line style="stroke:#888888;stroke-width:1.5625;" x1="1630.1025" x2="1630.1025" y1="1375" y2="1444.2291"/><text fill="#000000" font-family="Verdana" font-size="31.25" lengthAdjust="spacing" textLength="101.4099" x="1415.625" y="1422.0428">Debug</text><text fill="#000000" font-family="Verdana" font-size="31.25" lengthAdjust="spacing" textLength="10.9863" x="1517.0349" y="1422.0428">&#160;</text><text fill="#000000" font-family="Verdana" font-size="31.25" lengthAdjust="spacing" textLength="78.6438" x="1528.0212" y="1422.0428">diary</text></g><!--entity REQ--><g class="entity" data-entity="REQ" data-source-line="56" data-uid="ent0011" id="entity_REQ"><polygon fill="#7B1FA2" points="110.9375,265.625,126.5625,250,573.233,250,573.233,483.6456,557.608,499.2706,110.9375,499.2706,110.9375,265.625" style="stroke:#888888;stroke-width:1.5625;"/><line style="stroke:#888888;stroke-width:1.5625;" x1="557.608" x2="573.233" y1="265.625" y2="250"/><line style="stroke:#888888;stroke-width:1.5625;" x1="110.9375" x2="557.608" y1="265.625" y2="265.625"/><line style="stroke:#888888;stroke-width:1.5625;" x1="557.608" x2="557.608" y1="265.625" y2="499.2706"/><text fill="#000000" font-family="Verdana" font-size="31.25" lengthAdjust="spacing" textLength="66.0858" x="134.375" y="312.6678">REQ</text><text fill="#000000" font-family="Verdana" font-size="31.25" lengthAdjust="spacing" textLength="10.9863" x="200.4608" y="312.6678">&#160;</text><text fill="#000000" font-family="Verdana" font-size="31.25" lengthAdjust="spacing" textLength="245.8801" x="211.4471" y="312.6678">(Requirements)</text><line style="stroke:#888888;stroke-width:1.5625;" x1="110.9375" x2="557.608" y1="319.2291" y2="319.2291"/><line style="stroke:#888888;stroke-width:1.5625;" x1="557.608" x2="573.233" y1="319.2291" y2="303.6041"/><text fill="#000000" font-family="Verdana" font-size="31.25" lengthAdjust="spacing" textLength="65.9637" x="134.375" y="356.897">USR</text><text fill="#000000" font-family="Verdana" font-size="31.25" lengthAdjust="spacing" textLength="10.9863" x="200.3387" y="356.897">&#160;</text><text fill="#000000" font-family="Verdana" font-size="31.25" font-style="italic" lengthAdjust="spacing" textLength="40.7867" x="211.3251" y="356.897">Co</text><text fill="#000000" font-family="Verdana" font-size="31.25" font-style="italic" lengthAdjust="spacing" textLength="10.9863" x="252.1118" y="356.897">&#160;</text><text fill="#000000" font-family="Verdana" font-size="31.25" font-style="italic" lengthAdjust="spacing" textLength="29.5258" x="263.0981" y="356.897">ja</text><text fill="#000000" font-family="Verdana" font-size="31.25" font-style="italic" lengthAdjust="spacing" textLength="10.9863" x="292.6239" y="356.897">&#160;</text><text fill="#000000" font-family="Verdana" font-size="31.25" font-style="italic" lengthAdjust="spacing" textLength="87.9974" x="303.6102" y="356.897">chc&#281;?</text><text fill="#000000" font-family="Verdana" font-size="31.25" lengthAdjust="spacing" textLength="61.9507" x="134.375" y="394.8761">SYS</text><text fill="#000000" font-family="Verdana" font-size="31.25" lengthAdjust="spacing" textLength="10.9863" x="196.3257" y="394.8761">&#160;</text><text fill="#000000" font-family="Verdana" font-size="31.25" font-style="italic" lengthAdjust="spacing" textLength="40.7867" x="207.312" y="394.8761">Co</text><text fill="#000000" font-family="Verdana" font-size="31.25" font-style="italic" lengthAdjust="spacing" textLength="10.9863" x="248.0988" y="394.8761">&#160;</text><text fill="#000000" font-family="Verdana" font-size="31.25" font-style="italic" lengthAdjust="spacing" textLength="187.2711" x="259.0851" y="394.8761">wzmacniacz</text><text fill="#000000" font-family="Verdana" font-size="31.25" font-style="italic" lengthAdjust="spacing" textLength="10.9863" x="446.3562" y="394.8761">&#160;</text><text fill="#000000" font-family="Verdana" font-size="31.25" font-style="italic" lengthAdjust="spacing" textLength="49.1791" x="457.3425" y="394.8761">ma</text><text fill="#000000" font-family="Verdana" font-size="31.25" font-style="italic" lengthAdjust="spacing" textLength="93.6737" x="134.375" y="432.8552">robi&#263;?</text><text fill="#000000" font-family="Verdana" font-size="31.25" lengthAdjust="spacing" textLength="75.0122" x="134.375" y="470.8344">MOD</text><text fill="#000000" font-family="Verdana" font-size="31.25" lengthAdjust="spacing" textLength="10.9863" x="209.3872" y="470.8344">&#160;</text><text fill="#000000" font-family="Verdana" font-size="31.25" font-style="italic" lengthAdjust="spacing" textLength="40.7867" x="220.3735" y="470.8344">Co</text><text fill="#000000" font-family="Verdana" font-size="31.25" font-style="italic" lengthAdjust="spacing" textLength="10.9863" x="261.1603" y="470.8344">&#160;</text><text fill="#000000" font-family="Verdana" font-size="31.25" font-style="italic" lengthAdjust="spacing" textLength="97.1985" x="272.1466" y="470.8344">modu&#322;</text><text fill="#000000" font-family="Verdana" font-size="31.25" font-style="italic" lengthAdjust="spacing" textLength="10.9863" x="369.3451" y="470.8344">&#160;</text><text fill="#000000" font-family="Verdana" font-size="31.25" font-style="italic" lengthAdjust="spacing" textLength="49.1791" x="380.3314" y="470.8344">ma</text><text fill="#000000" font-family="Verdana" font-size="31.25" font-style="italic" lengthAdjust="spacing" textLength="10.9863" x="429.5105" y="470.8344">&#160;</text><text fill="#000000" font-family="Verdana" font-size="31.25" font-style="italic" lengthAdjust="spacing" textLength="93.6737" x="440.4968" y="470.8344">robi&#263;?</text></g><!--entity SPEC--><g class="entity" data-entity="SPEC" data-source-line="63" data-uid="ent0012" id="entity_SPEC"><polygon fill="#8E24AA" points="57.8125,743.75,73.4375,728.125,573.9716,728.125,573.9716,961.7706,558.3466,977.3956,57.8125,977.3956,57.8125,743.75" style="stroke:#888888;stroke-width:1.5625;"/><line style="stroke:#888888;stroke-width:1.5625;" x1="558.3466" x2="573.9716" y1="743.75" y2="728.125"/><line style="stroke:#888888;stroke-width:1.5625;" x1="57.8125" x2="558.3466" y1="743.75" y2="743.75"/><line style="stroke:#888888;stroke-width:1.5625;" x1="558.3466" x2="558.3466" y1="743.75" y2="977.3956"/><text fill="#000000" font-family="Verdana" font-size="31.25" lengthAdjust="spacing" textLength="81.7871" x="81.25" y="790.7928">SPEC</text><text fill="#000000" font-family="Verdana" font-size="31.25" lengthAdjust="spacing" textLength="10.9863" x="163.0371" y="790.7928">&#160;</text><text fill="#000000" font-family="Verdana" font-size="31.25" lengthAdjust="spacing" textLength="243.2098" x="174.0234" y="790.7928">(Specifications)</text><line style="stroke:#888888;stroke-width:1.5625;" x1="57.8125" x2="558.3466" y1="797.3541" y2="797.3541"/><line style="stroke:#888888;stroke-width:1.5625;" x1="558.3466" x2="573.9716" y1="797.3541" y2="781.7291"/><text fill="#000000" font-family="Verdana" font-size="31.25" lengthAdjust="spacing" textLength="88.3942" x="81.25" y="835.022">ARCH</text><text fill="#000000" font-family="Verdana" font-size="31.25" lengthAdjust="spacing" textLength="10.9863" x="169.6442" y="835.022">&#160;</text><text fill="#000000" font-family="Verdana" font-size="31.25" font-style="italic" lengthAdjust="spacing" textLength="209.8083" x="180.6305" y="835.022">Architektura?</text><text fill="#000000" font-family="Verdana" font-size="31.25" lengthAdjust="spacing" textLength="31.1127" x="81.25" y="873.0011">IF</text><text fill="#000000" font-family="Verdana" font-size="31.25" lengthAdjust="spacing" textLength="10.9863" x="112.3627" y="873.0011">&#160;</text><text fill="#000000" font-family="Verdana" font-size="31.25" font-style="italic" lengthAdjust="spacing" textLength="59.8907" x="123.349" y="873.0011">Jaki</text><text fill="#000000" font-family="Verdana" font-size="31.25" font-style="italic" lengthAdjust="spacing" textLength="10.9863" x="183.2397" y="873.0011">&#160;</text><text fill="#000000" font-family="Verdana" font-size="31.25" font-style="italic" lengthAdjust="spacing" textLength="31.2805" x="194.2261" y="873.0011">to</text><text fill="#000000" font-family="Verdana" font-size="31.25" font-style="italic" lengthAdjust="spacing" textLength="10.9863" x="225.5066" y="873.0011">&#160;</text><text fill="#000000" font-family="Verdana" font-size="31.25" font-style="italic" lengthAdjust="spacing" textLength="146.3013" x="236.4929" y="873.0011">interfejs?</text><text fill="#000000" font-family="Verdana" font-size="31.25" lengthAdjust="spacing" textLength="65.6586" x="81.25" y="910.9802">DEC</text><text fill="#000000" font-family="Verdana" font-size="31.25" lengthAdjust="spacing" textLength="10.9863" x="146.9086" y="910.9802">&#160;</text><text fill="#000000" font-family="Verdana" font-size="31.25" font-style="italic" lengthAdjust="spacing" textLength="51.3153" x="157.8949" y="910.9802">Jak</text><text fill="#000000" font-family="Verdana" font-size="31.25" font-style="italic" lengthAdjust="spacing" textLength="10.9863" x="209.2102" y="910.9802">&#160;</text><text fill="#000000" font-family="Verdana" font-size="31.25" font-style="italic" lengthAdjust="spacing" textLength="31.2805" x="220.1965" y="910.9802">to</text><text fill="#000000" font-family="Verdana" font-size="31.25" font-style="italic" lengthAdjust="spacing" textLength="10.9863" x="251.4771" y="910.9802">&#160;</text><text fill="#000000" font-family="Verdana" font-size="31.25" font-style="italic" lengthAdjust="spacing" textLength="110.2905" x="262.4634" y="910.9802">zosta&#322;o</text><text fill="#000000" font-family="Verdana" font-size="31.25" font-style="italic" lengthAdjust="spacing" textLength="10.9863" x="372.7539" y="910.9802">&#160;</text><text fill="#000000" font-family="Verdana" font-size="31.25" font-style="italic" lengthAdjust="spacing" textLength="151.1688" x="383.7402" y="910.9802">zrobione?</text><text fill="#000000" font-family="Verdana" font-size="31.25" lengthAdjust="spacing" textLength="10.9863" x="81.25" y="948.9594">&#160;</text></g><!--entity TST--><g class="entity" data-entity="TST" data-source-line="71" data-uid="ent0013" id="entity_TST"><polygon fill="#9C27B0" points="121.875,1311.7188,137.5,1296.0938,366.3666,1296.0938,366.3666,1491.7603,350.7416,1507.3853,121.875,1507.3853,121.875,1311.7188" style="stroke:#888888;stroke-width:1.5625;"/><line style="stroke:#888888;stroke-width:1.5625;" x1="350.7416" x2="366.3666" y1="1311.7188" y2="1296.0938"/><line style="stroke:#888888;stroke-width:1.5625;" x1="121.875" x2="350.7416" y1="1311.7188" y2="1311.7188"/><line style="stroke:#888888;stroke-width:1.5625;" x1="350.7416" x2="350.7416" y1="1311.7188" y2="1507.3853"/><text fill="#000000" font-family="Verdana" font-size="31.25" lengthAdjust="spacing" textLength="59.8755" x="145.3125" y="1358.7616">TST</text><text fill="#000000" font-family="Verdana" font-size="31.25" lengthAdjust="spacing" textLength="10.9863" x="205.188" y="1358.7616">&#160;</text><text fill="#000000" font-family="Verdana" font-size="31.25" lengthAdjust="spacing" textLength="111.1298" x="216.1743" y="1358.7616">(Tests)</text><line style="stroke:#888888;stroke-width:1.5625;" x1="121.875" x2="350.7416" y1="1365.3229" y2="1365.3229"/><line style="stroke:#888888;stroke-width:1.5625;" x1="350.7416" x2="366.3666" y1="1365.3229" y2="1349.6979"/><text fill="#000000" font-family="Verdana" font-size="31.25" lengthAdjust="spacing" textLength="63.5376" x="145.3125" y="1402.9907">Unit</text><text fill="#000000" font-family="Verdana" font-size="31.25" lengthAdjust="spacing" textLength="10.9863" x="208.8501" y="1402.9907">&#160;</text><text fill="#000000" font-family="Verdana" font-size="31.25" lengthAdjust="spacing" textLength="84.9609" x="219.8364" y="1402.9907">Testy</text><text fill="#000000" font-family="Verdana" font-size="31.25" lengthAdjust="spacing" textLength="59.5398" x="145.3125" y="1440.9698">Self</text><text fill="#000000" font-family="Verdana" font-size="31.25" lengthAdjust="spacing" textLength="10.9863" x="204.8523" y="1440.9698">&#160;</text><text fill="#000000" font-family="Verdana" font-size="31.25" lengthAdjust="spacing" textLength="84.9609" x="215.8386" y="1440.9698">Testy</text><text fill="#000000" font-family="Verdana" font-size="31.25" lengthAdjust="spacing" textLength="127.3804" x="145.3125" y="1478.949">Pomiary</text></g><!--entity GHIssues--><g class="entity" data-entity="GHIssues" data-source-line="80" data-uid="ent0015" id="entity_GHIssues"><polygon fill="#DF552C" points="601.5625,1818.75,617.1875,1803.125,764.4501,1803.125,764.4501,1872.3541,748.8251,1887.9791,601.5625,1887.9791,601.5625,1818.75" style="stroke:#888888;stroke-width:1.5625;"/><line style="stroke:#888888;stroke-width:1.5625;" x1="748.8251" x2="764.4501" y1="1818.75" y2="1803.125"/><line style="stroke:#888888;stroke-width:1.5625;" x1="601.5625" x2="748.8251" y1="1818.75" y2="1818.75"/><line style="stroke:#888888;stroke-width:1.5625;" x1="748.8251" x2="748.8251" y1="1818.75" y2="1887.9791"/><text fill="#000000" font-family="Verdana" font-size="31.25" lengthAdjust="spacing" textLength="100.3876" x="625" y="1865.7928">Issues</text></g><!--entity GHBranch--><g class="entity" data-entity="GHBranch" data-source-line="81" data-uid="ent0016" id="entity_GHBranch"><polygon fill="#F1653B" points="589.0625,2042.9688,604.6875,2027.3438,795.8191,2027.3438,795.8191,2096.5729,780.1941,2112.1979,589.0625,2112.1979,589.0625,2042.9688" style="stroke:#888888;stroke-width:1.5625;"/><line style="stroke:#888888;stroke-width:1.5625;" x1="780.1941" x2="795.8191" y1="2042.9688" y2="2027.3438"/><line style="stroke:#888888;stroke-width:1.5625;" x1="589.0625" x2="780.1941" y1="2042.9688" y2="2042.9688"/><line style="stroke:#888888;stroke-width:1.5625;" x1="780.1941" x2="780.1941" y1="2042.9688" y2="2112.1979"/><text fill="#000000" font-family="Verdana" font-size="31.25" lengthAdjust="spacing" textLength="144.2566" x="612.5" y="2090.0116">Branches</text></g><!--entity GHMain--><g class="entity" data-entity="GHMain" data-source-line="82" data-uid="ent0017" id="entity_GHMain"><polygon fill="#FF6E40" points="589.0625,2222.6563,604.6875,2207.0313,845.3644,2207.0313,845.3644,2276.2604,829.7394,2291.8854,589.0625,2291.8854,589.0625,2222.6563" style="stroke:#888888;stroke-width:1.5625;"/><line style="stroke:#888888;stroke-width:1.5625;" x1="829.7394" x2="845.3644" y1="2222.6563" y2="2207.0313"/><line style="stroke:#888888;stroke-width:1.5625;" x1="589.0625" x2="829.7394" y1="2222.6563" y2="2222.6563"/><line style="stroke:#888888;stroke-width:1.5625;" x1="829.7394" x2="829.7394" y1="2222.6563" y2="2291.8854"/><text fill="#000000" font-family="Verdana" font-size="31.25" lengthAdjust="spacing" textLength="73.4558" x="612.5" y="2269.6991">Main</text><text fill="#000000" font-family="Verdana" font-size="31.25" lengthAdjust="spacing" textLength="10.9863" x="685.9558" y="2269.6991">&#160;</text><text fill="#000000" font-family="Verdana" font-size="31.25" lengthAdjust="spacing" textLength="109.3597" x="696.9421" y="2269.6991">Branch</text></g><!--entity Zakupy--><g class="entity" data-entity="Zakupy" data-source-line="86" data-uid="ent0019" id="entity_Zakupy"><polygon fill="#FBC02D" points="1642.9688,1818.75,1658.5938,1803.125,1821.8781,1803.125,1821.8781,1872.3541,1806.2531,1887.9791,1642.9688,1887.9791,1642.9688,1818.75" style="stroke:#888888;stroke-width:1.5625;"/><line style="stroke:#888888;stroke-width:1.5625;" x1="1806.2531" x2="1821.8781" y1="1818.75" y2="1803.125"/><line style="stroke:#888888;stroke-width:1.5625;" x1="1642.9688" x2="1806.2531" y1="1818.75" y2="1818.75"/><line style="stroke:#888888;stroke-width:1.5625;" x1="1806.2531" x2="1806.2531" y1="1818.75" y2="1887.9791"/><text fill="#000000" font-family="Verdana" font-size="31.25" lengthAdjust="spacing" textLength="116.4093" x="1666.4063" y="1865.7928">Zakupy</text></g><!--entity Budowa--><g class="entity" data-entity="Budowa" data-source-line="87" data-uid="ent0020" id="entity_Budowa"><polygon fill="#FBC02D" points="1174.2188,1818.75,1189.8438,1803.125,1360.6964,1803.125,1360.6964,1872.3541,1345.0714,1887.9791,1174.2188,1887.9791,1174.2188,1818.75" style="stroke:#888888;stroke-width:1.5625;"/><line style="stroke:#888888;stroke-width:1.5625;" x1="1345.0714" x2="1360.6964" y1="1818.75" y2="1803.125"/><line style="stroke:#888888;stroke-width:1.5625;" x1="1174.2188" x2="1345.0714" y1="1818.75" y2="1818.75"/><line style="stroke:#888888;stroke-width:1.5625;" x1="1345.0714" x2="1345.0714" y1="1818.75" y2="1887.9791"/><text fill="#000000" font-family="Verdana" font-size="31.25" lengthAdjust="spacing" textLength="123.9777" x="1197.6563" y="1865.7928">Budowa</text></g><!--entity Pomiar--><g class="entity" data-entity="Pomiar" data-source-line="88" data-uid="ent0021" id="entity_Pomiar"><polygon fill="#FBC02D" points="1415.625,1818.75,1431.25,1803.125,1587.0117,1803.125,1587.0117,1872.3541,1571.3867,1887.9791,1415.625,1887.9791,1415.625,1818.75" style="stroke:#888888;stroke-width:1.5625;"/><line style="stroke:#888888;stroke-width:1.5625;" x1="1571.3867" x2="1587.0117" y1="1818.75" y2="1803.125"/><line style="stroke:#888888;stroke-width:1.5625;" x1="1415.625" x2="1571.3867" y1="1818.75" y2="1818.75"/><line style="stroke:#888888;stroke-width:1.5625;" x1="1571.3867" x2="1571.3867" y1="1818.75" y2="1887.9791"/><text fill="#000000" font-family="Verdana" font-size="31.25" lengthAdjust="spacing" textLength="108.8867" x="1439.0625" y="1865.7928">Pomiar</text></g><!--entity Idea--><g class="entity" data-entity="Idea" data-source-line="16" data-uid="ent0002" id="entity_Idea"><polygon fill="#FF9800" points="1042.9688,32.8125,1058.5938,17.1875,1259.5673,17.1875,1259.5673,86.4166,1243.9423,102.0416,1042.9688,102.0416,1042.9688,32.8125" style="stroke:#888888;stroke-width:1.5625;"/><line style="stroke:#888888;stroke-width:1.5625;" x1="1243.9423" x2="1259.5673" y1="32.8125" y2="17.1875"/><line style="stroke:#888888;stroke-width:1.5625;" x1="1042.9688" x2="1243.9423" y1="32.8125" y2="32.8125"/><line style="stroke:#888888;stroke-width:1.5625;" x1="1243.9423" x2="1243.9423" y1="32.8125" y2="102.0416"/><text fill="#000000" font-family="Verdana" font-size="31.25" lengthAdjust="spacing" textLength="31.25" x="1066.4063" y="79.8553">&#128161;</text><text fill="#000000" font-family="Verdana" font-size="31.25" lengthAdjust="spacing" textLength="10.9863" x="1097.6563" y="79.8553">&#160;</text><text fill="#000000" font-family="Verdana" font-size="31.25" lengthAdjust="spacing" textLength="111.8622" x="1108.6426" y="79.8553">Pomys&#322;</text></g><!--entity Dox--><g class="entity" data-entity="Dox" data-source-line="92" data-uid="ent0022" id="entity_Dox"><polygon fill="#FF8C00" points="327.3438,1774.2188,342.9688,1758.5938,538.9221,1758.5938,538.9221,1916.2811,523.2971,1931.9061,327.3438,1931.9061,327.3438,1774.2188" style="stroke:#888888;stroke-width:1.5625;"/><line style="stroke:#888888;stroke-width:1.5625;" x1="523.2971" x2="538.9221" y1="1774.2188" y2="1758.5938"/><line style="stroke:#888888;stroke-width:1.5625;" x1="327.3438" x2="523.2971" y1="1774.2188" y2="1774.2188"/><line style="stroke:#888888;stroke-width:1.5625;" x1="523.2971" x2="523.2971" y1="1774.2188" y2="1931.9061"/><text fill="#000000" font-family="Verdana" font-size="31.25" lengthAdjust="spacing" textLength="137.8937" x="350.7813" y="1821.2616">Doxygen</text><line style="stroke:#888888;stroke-width:1.5625;" x1="327.3438" x2="523.2971" y1="1827.8229" y2="1827.8229"/><line style="stroke:#888888;stroke-width:1.5625;" x1="523.2971" x2="538.9221" y1="1827.8229" y2="1812.1979"/><text fill="#000000" font-family="Verdana" font-size="31.25" lengthAdjust="spacing" textLength="82.6721" x="350.7813" y="1865.4907">@req</text><text fill="#000000" font-family="Verdana" font-size="31.25" lengthAdjust="spacing" textLength="10.9863" x="433.4534" y="1865.4907">&#160;</text><text fill="#000000" font-family="Verdana" font-size="31.25" lengthAdjust="spacing" textLength="55.4199" x="444.4397" y="1865.4907">link</text><text fill="#000000" font-family="Verdana" font-size="31.25" lengthAdjust="spacing" textLength="90.7745" x="350.7813" y="1903.4698">@test</text></g><!--entity Done--><g class="entity" data-entity="Done" data-source-line="98" data-uid="ent0023" id="entity_Done"><path d="M662.1052,2402.5997 C664.9115,2394.1489 672.8298,2391.8646 678.801,2399.2665 C684.0346,2388.513 691.0737,2384.4037 701.0205,2394.1604 C705.0249,2383.4062 711.2308,2381.8977 720.3889,2388.3637 C727.9611,2382.1509 735.7403,2385.2462 736.7374,2395.0677 C744.8021,2385.6795 752.4648,2387.6331 757.665,2398.0887 C766.5959,2392.216 772.679,2394.3099 775.2827,2404.8715 C791.5554,2406.8042 796.3973,2418.9084 788.3866,2432.4001 C800.3164,2447.8994 793.1285,2459.9259 775.4143,2462.7578 C772.3217,2473.158 763.84,2474.3661 757.5997,2465.6985 C753.1559,2474.1624 744.2453,2476.9896 738.6129,2466.9158 C732.8783,2476.5325 727.2903,2475.8243 720.4523,2468.0693 C713.2155,2477.0705 706.7758,2478.072 700.7657,2466.8737 C694.9249,2476.1777 685.5597,2475.3264 680.0842,2466.4579 C672.9149,2473.3577 665.9594,2472.8889 661.0039,2463.8137 C645.1181,2455.2182 644.7509,2444.527 657.2088,2432.4967 C642.4046,2421.2272 645.8692,2408.7856 662.1052,2402.5997" fill="#2E7D32" style="stroke:#000000;stroke-width:1.5625;"/><text fill="#000000" font-family="Verdana" font-size="31.25" lengthAdjust="spacing" textLength="93.7347" x="670.3125" y="2444.6991">Done!</text></g><!--link Idea to QC--><g class="link" data-entity-1="Idea" data-entity-2="QC" data-source-line="101" data-uid="lnk24" id="link_Idea_QC"><path d="M1151.5625,101.7969 C1151.5625,161.6875 1151.5625,263.2969 1151.5625,323.2031" fill="none" id="Idea-to-QC" style="stroke:#B0B0B0;stroke-width:1.5625;"/><polygon fill="#B0B0B0" points="1151.5625,332.5781,1157.8125,318.5156,1151.5625,324.7656,1145.3125,318.5156,1151.5625,332.5781" style="stroke:#B0B0B0;stroke-width:1.5625;"/></g><!--link QC to Kanban--><g class="link" data-entity-1="QC" data-entity-2="Kanban" data-source-line="102" data-uid="lnk25" id="link_QC_Kanban"><path d="M1150.625,417.4688 C1149.3281,473.8438 1147.1227,569.5963 1144.9821,662.2681" fill="none" id="QC-to-Kanban" style="stroke:#B0B0B0;stroke-width:1.5625;"/><polygon fill="#B0B0B0" points="1144.7656,671.6406,1151.3387,657.7262,1144.946,663.8302,1138.842,657.4375,1144.7656,671.6406" style="stroke:#B0B0B0;stroke-width:1.5625;"/><text fill="#000000" font-family="Verdana" font-size="31.25" lengthAdjust="spacing" textLength="151.474" x="1173.0042" y="579.8553">Organizuj</text><text fill="#000000" font-family="Verdana" font-size="31.25" lengthAdjust="spacing" textLength="189.621" x="1159.4238" y="617.8345">i prioretyzuj</text></g><!--link Kanban to Docs--><g class="link" data-entity-1="Kanban" data-entity-2="Docs" data-source-line="103" data-uid="lnk26" id="link_Kanban_Docs"><path d="M1095.0938,1034.5781 C1087.6719,1067.6406 1080.5938,1101.9375 1075,1134.375 C1073.7568,1141.5771 1072.5543,1148.8985 1071.392,1156.2971 C1071.2467,1157.222 1072.5411,1148.8841 1072.3971,1149.8113" fill="none" id="Kanban-to-Docs" style="stroke:#B0B0B0;stroke-width:1.5625;"/><polygon fill="#B0B0B0" points="1070.958,1159.0751,1079.2925,1146.1387,1072.1572,1151.3552,1066.9407,1144.2199,1070.958,1159.0751" style="stroke:#B0B0B0;stroke-width:1.5625;"/><text fill="#000000" font-family="Verdana" font-size="31.25" lengthAdjust="spacing" textLength="180.3589" x="1084.375" y="1114.2303">R&#243;b notatki</text></g><!--link GHIssues to GHBranch--><g class="link" data-entity-1="GHIssues" data-entity-2="GHBranch" data-source-line="107" data-uid="lnk27" id="link_GHIssues_GHBranch"><path d="M684.5469,1887.9375 C686.2344,1927.6563 688.3862,1978.1177 690.0581,2017.7583" fill="none" id="GHIssues-to-GHBranch" style="stroke:#B0B0B0;stroke-width:1.5625;"/><polygon fill="#B0B0B0" points="690.4531,2027.125,696.105,2012.8116,690.1239,2019.3194,683.6161,2013.3384,690.4531,2027.125" style="stroke:#B0B0B0;stroke-width:1.5625;"/></g><!--link GHBranch to GHMain--><g class="link" data-entity-1="GHBranch" data-entity-2="GHMain" data-source-line="108" data-uid="lnk28" id="link_GHBranch_GHMain"><path d="M697.9844,2112.0469 C702.0313,2140.5625 706.0762,2169.1707 710.1075,2197.6395" fill="none" id="GHBranch-to-GHMain" style="stroke:#B0B0B0;stroke-width:1.5625;"/><polygon fill="#B0B0B0" points="711.4219,2206.9219,715.6385,2192.122,710.3265,2199.1865,703.262,2193.8746,711.4219,2206.9219" style="stroke:#B0B0B0;stroke-width:1.5625;"/></g><!--reverse link Dox to GHBranch--><g class="link" data-entity-1="Dox" data-entity-2="GHBranch" data-source-line="110" data-uid="lnk30" id="link_Dox_GHBranch"><path d="M540.2286,1938.4408 C578.4318,1971.0033 613.0938,2000.5469 644.2656,2027.1094" fill="none" id="Dox-backto-GHBranch" style="stroke:#B0B0B0;stroke-width:1.5625;"/><polygon fill="#B0B0B0" points="533.0938,1932.3594,539.7418,1946.2381,539.0395,1937.4272,547.8504,1936.7249,533.0938,1932.3594" style="stroke:#B0B0B0;stroke-width:1.5625;"/></g><!--reverse link SPEC to Dox--><g class="link" data-entity-1="SPEC" data-entity-2="Dox" data-source-line="111" data-uid="lnk32" id="link_SPEC_Dox"><path d="M370.6888,987.4734 C382.3607,1020.2859 390.125,1047.2344 396.875,1081.25 C444.8125,1323.0469 442.0625,1616 436.9688,1758.125" fill="none" id="SPEC-backto-Dox" style="stroke:#B0B0B0;stroke-width:1.5625;stroke-dasharray:7.0,7.0;"/><polygon fill="#B0B0B0" points="367.5469,978.6406,366.3713,993.9845,370.1652,986.0013,378.1484,989.7952,367.5469,978.6406" style="stroke:#B0B0B0;stroke-width:1.5625;"/></g><!--reverse link TST to Dox--><g class="link" data-entity-1="TST" data-entity-2="Dox" data-source-line="112" data-uid="lnk34" id="link_TST_Dox"><path d="M292.2587,1516.1625 C325.118,1592.7562 365.5,1686.875 396.25,1758.5469" fill="none" id="TST-backto-Dox" style="stroke:#B0B0B0;stroke-width:1.5625;stroke-dasharray:7.0,7.0;"/><polygon fill="#B0B0B0" points="288.5625,1507.5469,288.363,1522.9344,291.6426,1514.7266,299.8505,1518.0062,288.5625,1507.5469" style="stroke:#B0B0B0;stroke-width:1.5625;"/></g><!--link REQ to GHIssues--><g class="link" data-entity-1="REQ" data-entity-2="GHIssues" data-source-line="113" data-uid="lnk35" id="link_REQ_GHIssues"><path d="M573.6719,489.25 C592.4688,506.2188 609.1094,525.3594 621.875,546.875 C687.2031,657.0156 684.6256,1584.1721 683.2193,1793.1408" fill="none" id="REQ-to-GHIssues" style="stroke:#B0B0B0;stroke-width:1.5625;"/><polygon fill="#B0B0B0" points="683.1563,1802.5156,689.5007,1788.4955,683.2088,1794.7033,677.001,1788.4114,683.1563,1802.5156" style="stroke:#B0B0B0;stroke-width:1.5625;"/><text fill="#E0E0E0" font-family="Verdana" font-size="31.25" lengthAdjust="spacing" textLength="299.3164" x="678.125" y="1114.2303">REQ ma sw&#243;j issue</text></g><!--reverse link REQ to QC--><g class="link" data-entity-1="REQ" data-entity-2="QC" data-source-line="117" data-uid="lnk37" id="link_REQ_QC"><path d="M582.9531,375 C723.1094,375 888.0781,375 1008.4375,375" fill="none" id="REQ-backto-QC" style="stroke:#B0B0B0;stroke-width:1.5625;"/><polygon fill="#B0B0B0" points="573.5781,375,587.6406,381.25,581.3906,375,587.6406,368.75,573.5781,375" style="stroke:#B0B0B0;stroke-width:1.5625;"/><text fill="#E0E0E0" font-family="Verdana" font-size="31.25" lengthAdjust="spacing" textLength="133.2703" x="724.6094" y="362.6678">Ustal cel</text></g><!--reverse link QC to QC--><g class="link" data-entity-1="QC" data-entity-2="QC" data-source-line="118" data-uid="lnk39" id="link_QC_QC"><path d="M1303.9087,337.8559 C1335.5181,341.4497 1349.2188,353.125 1349.2188,375 C1349.2188,396.875 1326.2031,409.6094 1294.5938,413.2031" fill="none" id="QC-backto-QC" style="stroke:#B0B0B0;stroke-width:1.5625;"/><polygon fill="#B0B0B0" points="1294.5938,336.7969,1307.8602,344.5954,1302.3562,337.6794,1309.2723,332.1754,1294.5938,336.7969" style="stroke:#B0B0B0;stroke-width:1.5625;"/><text fill="#000000" font-family="Verdana" font-size="31.25" lengthAdjust="spacing" textLength="243.3472" x="1358.5938" y="387.6678">Nadal jako idea</text></g><!--link REQ to SPEC--><g class="link" data-entity-1="REQ" data-entity-2="SPEC" data-source-line="120" data-uid="lnk40" id="link_REQ_SPEC"><path d="M319.3125,500.4531 C317.1406,516.0313 315.2969,531.7969 314.0625,546.875 C309.2031,606.1875 308.7,662.8304 309.9188,718.221" fill="none" id="REQ-to-SPEC" style="stroke:#B0B0B0;stroke-width:1.5625;"/><polygon fill="#B0B0B0" points="310.125,727.5938,316.0641,713.3972,309.9531,719.7831,303.5672,713.6721,310.125,727.5938" style="stroke:#B0B0B0;stroke-width:1.5625;"/><text fill="#E0E0E0" font-family="Verdana" font-size="31.25" lengthAdjust="spacing" textLength="298.4619" x="315.625" y="598.6053">Zapisz co si&#281; uda&#322;o</text></g><!--link SPEC to TST--><g class="link" data-entity-1="SPEC" data-entity-2="TST" data-source-line="121" data-uid="lnk41" id="link_SPEC_TST"><path d="M299.3125,978.4219 C286.6875,1074.2656 270.6,1196.2366 258.6782,1286.6898" fill="none" id="SPEC-to-TST" style="stroke:#B0B0B0;stroke-width:1.5625;"/><polygon fill="#B0B0B0" points="257.4531,1295.9844,265.4871,1282.8591,258.474,1288.2389,253.0943,1281.2258,257.4531,1295.9844" style="stroke:#B0B0B0;stroke-width:1.5625;"/><text fill="#E0E0E0" font-family="Verdana" font-size="31.25" lengthAdjust="spacing" textLength="97.0001" x="285.9375" y="1114.2303">Testuj</text></g><!--link TST to Done--><g class="link" data-entity-1="TST" data-entity-2="Done" data-source-line="124" data-uid="lnk42" id="link_TST_Done"><path d="M243.75,1507.2813 C243.75,1596.5781 243.75,1728.625 243.75,1843.75 C243.75,1843.75 243.75,1843.75 243.75,2250.7813 C243.75,2335.9531 505.7109,2393.4635 637.6015,2417.2135" fill="none" id="TST-to-Done" style="stroke:#B0B0B0;stroke-width:1.5625;"/><polygon fill="#B0B0B0" points="646.8281,2418.875,634.0959,2410.2317,639.1393,2417.4904,631.8806,2422.5339,646.8281,2418.875" style="stroke:#B0B0B0;stroke-width:1.5625;"/></g><!--link REQ to Kanban--><g class="link" data-entity-1="REQ" data-entity-2="Kanban" data-source-line="125" data-uid="lnk43" id="link_REQ_Kanban"><path d="M573.8281,481.4375 C615.375,502.0312 657.8594,524.2969 696.875,546.875 C805.25,609.6094 914.1536,684.6465 1000.5911,747.1622" fill="none" id="REQ-to-Kanban" style="stroke:#B0B0B0;stroke-width:1.5625;stroke-dasharray:7.0,7.0;"/><polygon fill="#B0B0B0" points="1008.1875,752.6563,1000.4556,739.3508,1001.8571,748.0778,993.1301,749.4794,1008.1875,752.6563" style="stroke:#B0B0B0;stroke-width:1.5625;"/></g><!--link GHMain to Done--><g class="link" data-entity-1="GHMain" data-entity-2="Done" data-source-line="126" data-uid="lnk44" id="link_GHMain_Done"><path d="M717.1875,2291.5625 C717.1875,2320.75 717.1875,2350.5625 717.1875,2379.8594" fill="none" id="GHMain-to-Done" style="stroke:#B0B0B0;stroke-width:1.5625;"/><polygon fill="#B0B0B0" points="717.1875,2389.2344,723.4375,2375.1719,717.1875,2381.4219,710.9375,2375.1719,717.1875,2389.2344" style="stroke:#B0B0B0;stroke-width:1.5625;"/></g><!--link Task to Done--><g class="link" data-entity-1="Task" data-entity-2="Done" data-source-line="128" data-uid="lnk45" id="link_Task_Done"><path d="M1105.8115,1887.3782 C1105.5161,1888.2539 1105.2158,1889.1419 1104.9105,1890.042 C1103.6892,1893.6424 1102.3882,1897.4361 1101.0078,1901.4106 C1089.9648,1933.207 1073.8438,1976.5801 1052.8594,2025.1875 C1010.8906,2122.4023 949.4688,2240.5547 870.3125,2328.9063 C847.1094,2354.8125 823.9323,2372.2175 795.7448,2389.2332" fill="none" id="Task-to-Done" style="stroke:#B0B0B0;stroke-width:1.5625;"/><polygon fill="#B0B0B0" points="787.7188,2394.0781,802.9877,2392.1613,794.4071,2390.0406,796.5278,2381.46,787.7188,2394.0781" style="stroke:#B0B0B0;stroke-width:1.5625;"/></g><!--link BOM to Zakupy--><g class="link" data-entity-1="BOM" data-entity-2="Zakupy" data-source-line="131" data-uid="lnk46" id="link_BOM_Zakupy"><path d="M1794.5156,1488.6094 C1778.0781,1583.2031 1753.8859,1722.4665 1741.5109,1793.7008" fill="none" id="BOM-to-Zakupy" style="stroke:#B0B0B0;stroke-width:1.5625;"/><polygon fill="#B0B0B0" points="1739.9063,1802.9375,1748.4709,1790.1523,1741.2434,1795.2403,1736.1554,1788.0128,1739.9063,1802.9375" style="stroke:#B0B0B0;stroke-width:1.5625;"/></g><!--link HW to Budowa--><g class="link" data-entity-1="HW" data-entity-2="Budowa" data-source-line="132" data-uid="lnk47" id="link_HW_Budowa"><path d="M1236.4375,1564.0781 C1245.875,1649.875 1255.7106,1739.3373 1261.6637,1793.5248" fill="none" id="HW-to-Budowa" style="stroke:#B0B0B0;stroke-width:1.5625;"/><polygon fill="#B0B0B0" points="1262.6875,1802.8438,1267.3644,1788.1828,1261.8343,1795.078,1254.9392,1789.5479,1262.6875,1802.8438" style="stroke:#B0B0B0;stroke-width:1.5625;"/></g><!--link Pomiar to DBG--><g class="link" data-entity-1="Pomiar" data-entity-2="DBG" data-source-line="133" data-uid="lnk48" id="link_Pomiar_DBG"><path d="M1503.1719,1802.5469 C1506.4531,1718.3594 1513.5253,1536.8835 1516.7909,1453.1491" fill="none" id="Pomiar-to-DBG" style="stroke:#B0B0B0;stroke-width:1.5625;"/><polygon fill="#B0B0B0" points="1517.1563,1443.7813,1510.363,1457.5895,1516.8518,1451.5878,1522.8535,1458.0766,1517.1563,1443.7813" style="stroke:#B0B0B0;stroke-width:1.5625;"/></g><!--SRC=[ZLRDSk964BxFK_IQWpS7l0B3mb8k9o21xIGEjh7BbKry6AG1neWPhNuAcvGllkIUsvvIUOPzXBNV9u-GdXdzidPLf2hGVFrfkdlwJs_Y1Lin27pA1OcMN0Gqf2kOKdSv3sKYF5lwCeHQWwgxn13IOuDjLjDJzpPBXXuBKqPNNoN6Yej-6ChrDVVY1JHB4gfWBVkPYJaA6rP9wWKS6kqouh0PJVnu94KyuHi6JOliGY5MU6e4izHTaNh5orNIbZsfS6gfc-0MFfl544i8-NmHWyT3viPS2aAKwx3pxzz__GDdSdKVFJ_k08tWn6CKQgFHXwvbPQJnDE8Ufq8JnZQUzg0zR5hm1m6y3ESyuUuIR1h4ISWqyHo9bjFgz1i5xISgfbHW88OTPxy9lsc9kWwcXqPsy6vwcAFrUZr_lc0Hew6xA06V4dHdnKISOttd8dy-fg6tfY7BWOcSnHLW478nXoGeW6Ikds_qxqpwc1YmCzB_aNRAaMu4jVrkTxXlf_xdpWt6fr1hsVrHsofvbdg7mefhs-wb1iYLpwFuVWl-I9T9K80tLRt7rw-hFRx-7rfFxQijPC949CDlpOYuJmLdM_Y9Y5auOxVHzWlZQUB9DTr2p-p1QwxiE6oQp35DQNXlpdjmb3cNCtSDrw4nZHQCnL65yK0UI9QuZfHX5CiW3PrP8BlVQ7NjSlfU3C-XrXaqHlroKYhqRIdDekzUpCohoGKSy4DRmYq5T-4-VVx-u1ql3dtowoILhpShwWfEtGsiA8Hoof_-h79FnqxANKalUNvyYNTJs3qv6sALTOVDLhzVCbp3RoS1S_cCkrGL_2kszo_iOwMmZvN5OxR4wgLLYqv6IluZNNBLHdWMwYh9GNs6fKWR6SNq-H4VbEbIC4FUDlvoSWcr3tQpCoWdhaBVNhBerTCMF0ObBv9jmlpP5eGjJULGgl8XIuWZ7kjSm7-eETtMVgDTwM8dKPGmK-b7nsO1DM_MRZVT4ciGKk4kSfvPGctMUD_UdvPufpYqm4XJgaQmkxuVjgp2gaiQBSrcwWdbxSweqIaRPXe0IWQsrNGAVA3hwrlSk9_ZcIP7tYdjNTlAJXoH-paJf7pAFuJi4_XSBCqgneCbDuIulamyLLE2lKaBIh2ibQjHevsR-NBTCrD4fSigy7Nfw1ma6gwZoQ9-YFE1u8Z8LgRxzs0Sph73R9BRtmLm248kGnRVuvgaiwEEPDM5Ut3nzSiKtSMzbnpLb-HPx9HL6Ef5CjLsaJoccTOiU2IFOY5Hxf2I80cqvZkYJX5NUxXKXMRMQiug1DENgBvHDWDgCRkBUsPYGq_t5QphQFtroormHI7anG-1aRxGYRntQJVKiIbzg48thkhkLrXyFhZC1qtKPf_RFVY5UeZVqYM61UD0Z9cfkwQHL3VwI0CURS2L4F6dpv1uggQ9PcQlwHAklgNg4AE5HeyOyzI76lXI1aHHJUm4Cwhr9ybU7dkIbaTEsZKPLj-hrmkIhf2SehIOAOrvm5J6uKnO4ZM95IUTcpWWrSeK2qbhG-ynE2B_0G00]--></g></svg>